<svg xmlns="http://www.w3.org/2000/svg" viewBox="0 0 96 96">
  <rect x="1" y="1" width="94" height="94" rx="8" fill="#e4decb"/>
  <rect x="6" y="6" width="84" height="84" rx="5" fill="none" stroke="#26231c" stroke-width="2"/>
  <!-- 夜空带（深夜时段） -->
  <path fill="#262420" d="M10 10h76v18H10z"/>
  <circle cx="74" cy="19" r="4" fill="#e4decb"/>
  <circle cx="70" cy="17" r="3.5" fill="#262420"/>
  <!-- 排屋剪影 -->
  <path fill="#26231c" d="M12 78V48l10-6 10 6v30z"/>
  <path fill="#26231c" d="M36 78V52h16v26z"/>
  <path fill="#26231c" d="M58 78V44l12-8 12 8v34z"/>
  <!-- 唯一亮窗 + 声波弧（少数住户） -->
  <rect class="mw-flicker" x="41" y="57" width="7" height="8" fill="#e4decb" stroke="#b44622" stroke-width="2"/>
  <path class="mw-pulse" fill="none" stroke="#b44622" stroke-width="2" stroke-linecap="round" d="M52 58q4 3 0 6M56 55q7 5 0 12"/>
  <!-- 其余窗全暗 -->
  <rect x="17" y="53" width="6" height="7" fill="#262420"/>
  <rect x="26" y="53" width="6" height="7" fill="#262420"/>
  <rect x="63" y="50" width="6" height="7" fill="#262420"/>
  <rect x="73" y="50" width="6" height="7" fill="#262420"/>
  <!-- 地面 -->
  <path fill="none" stroke="#26231c" stroke-width="2.5" stroke-linecap="round" d="M10 78h76"/>
</svg>
