<svg xmlns="http://www.w3.org/2000/svg" viewBox="0 0 96 96"><rect width="94" height="94" x="1" y="1" fill="#e4decb" rx="8"/><rect width="84" height="84" x="6" y="6" fill="none" stroke="#26231c" stroke-width="2" rx="5"/><path fill="#26231c" d="M16 66V34l12-4v4h10v32z"/><path fill="#b6ab94" d="M22 38h22v24H22z"/><path fill="none" stroke="#26231c" stroke-width="1.5" d="M26 44h14m-14 6h14m-14 6h10"/><circle cx="68" cy="62" r="9" fill="none" stroke="#26231c" stroke-width="2.5"/><path fill="none" stroke="#26231c" stroke-linecap="round" stroke-width="3" d="M68 49v-4m0 34v-4M55 62h4m22 0h-4m-18-9 3 3m18 15-3-3m-18 3 3-3m18-15-3 3"/><circle cx="68" cy="62" r="3" fill="#26231c"/><path fill="none" stroke="#b44622" stroke-dasharray="4 4" stroke-linecap="round" stroke-width="2.5" d="M34 30V16" class="mw-march"/><path fill="none" stroke="#b44622" stroke-linecap="round" stroke-linejoin="round" stroke-width="2.5" d="m28 21 6-6 6 6"/></svg>