<svg xmlns="http://www.w3.org/2000/svg" viewBox="0 0 96 96"><rect width="94" height="94" x="1" y="1" fill="#e4decb" rx="8"/><rect width="84" height="84" x="6" y="6" fill="none" stroke="#26231c" stroke-width="2" rx="5"/><path fill="#26231c" d="M20 78V40l14-10 14 10v38zm28 0V50h24v28z"/><path fill="none" stroke="#26231c" stroke-linecap="round" stroke-width="2.5" d="M16 78h64"/><path fill="#e48034" d="M27 46h8v9h-8z" class="mw-flicker"/><path fill="#e4decb" stroke="#26231c" stroke-width="1.5" d="M39 46h8v9h-8zM27 60h8v9h-8zm12 0h8v9h-8z"/><path fill="#26231c" d="M54 56h6v7h-6zm10 0h6v7h-6z"/><path fill="none" stroke="#b3ac97" stroke-linecap="round" stroke-width="3" d="M74 22a9 9 0 1 1-9-12"/><path fill="#26231c" d="M43 70h10v8H43z"/></svg>